<svg width="580" height="420" xmlns="http://www.w3.org/2000/svg">
  <line x1="280" y1="70" x2="160" y2="130" stroke="#999" stroke-width="2"></line>
  <line x1="160" y1="150" x2="100" y2="210" stroke="#999" stroke-width="2"></line>
  <line x1="100" y1="230" x2="70" y2="290" stroke="#999" stroke-width="2"></line>
  <rect x="50" y="290" width="40" height="40" fill="#fff0e6" stroke="#cc5200" stroke-width="2" rx="5"></rect>
  <text x="70" y="310" dy="0.35em" text-anchor="middle" font-family="monospace" font-weight="bold" fill="#333">0</text>
  <line x1="100" y1="230" x2="130" y2="290" stroke="#999" stroke-width="2"></line>
  <rect x="110" y="290" width="40" height="40" fill="#fff0e6" stroke="#cc5200" stroke-width="2" rx="5"></rect>
  <text x="130" y="310" dy="0.35em" text-anchor="middle" font-family="monospace" font-weight="bold" fill="#333">1</text>
  <rect x="70" y="210" width="60" height="40" fill="#e6f3ff" stroke="#0066cc" stroke-width="2" rx="5"></rect>
  <text x="100" y="230" dy="0.35em" text-anchor="middle" font-family="monospace" font-weight="bold" fill="#333">[0, 2)</text>
  <line x1="160" y1="150" x2="220" y2="210" stroke="#999" stroke-width="2"></line>
  <line x1="220" y1="230" x2="190" y2="290" stroke="#999" stroke-width="2"></line>
  <rect x="170" y="290" width="40" height="40" fill="#fff0e6" stroke="#cc5200" stroke-width="2" rx="5"></rect>
  <text x="190" y="310" dy="0.35em" text-anchor="middle" font-family="monospace" font-weight="bold" fill="#333">2</text>
  <line x1="220" y1="230" x2="250" y2="290" stroke="#999" stroke-width="2"></line>
  <rect x="230" y="290" width="40" height="40" fill="#fff0e6" stroke="#cc5200" stroke-width="2" rx="5"></rect>
  <text x="250" y="310" dy="0.35em" text-anchor="middle" font-family="monospace" font-weight="bold" fill="#333">3</text>
  <rect x="190" y="210" width="60" height="40" fill="#e6f3ff" stroke="#0066cc" stroke-width="2" rx="5"></rect>
  <text x="220" y="230" dy="0.35em" text-anchor="middle" font-family="monospace" font-weight="bold" fill="#333">[2, 4)</text>
  <rect x="130" y="130" width="60" height="40" fill="#e6f3ff" stroke="#0066cc" stroke-width="2" rx="5"></rect>
  <text x="160" y="150" dy="0.35em" text-anchor="middle" font-family="monospace" font-weight="bold" fill="#333">[0, 4)</text>
  <line x1="280" y1="70" x2="400" y2="130" stroke="#999" stroke-width="2"></line>
  <line x1="400" y1="150" x2="340" y2="210" stroke="#999" stroke-width="2"></line>
  <line x1="340" y1="230" x2="310" y2="290" stroke="#999" stroke-width="2"></line>
  <rect x="290" y="290" width="40" height="40" fill="#fff0e6" stroke="#cc5200" stroke-width="2" rx="5"></rect>
  <text x="310" y="310" dy="0.35em" text-anchor="middle" font-family="monospace" font-weight="bold" fill="#333">4</text>
  <line x1="340" y1="230" x2="370" y2="290" stroke="#999" stroke-width="2"></line>
  <rect x="350" y="290" width="40" height="40" fill="#fff0e6" stroke="#cc5200" stroke-width="2" rx="5"></rect>
  <text x="370" y="310" dy="0.35em" text-anchor="middle" font-family="monospace" font-weight="bold" fill="#333">5</text>
  <rect x="310" y="210" width="60" height="40" fill="#e6f3ff" stroke="#0066cc" stroke-width="2" rx="5"></rect>
  <text x="340" y="230" dy="0.35em" text-anchor="middle" font-family="monospace" font-weight="bold" fill="#333">[4, 6)</text>
  <line x1="400" y1="150" x2="460" y2="210" stroke="#999" stroke-width="2"></line>
  <line x1="460" y1="230" x2="430" y2="290" stroke="#999" stroke-width="2"></line>
  <rect x="410" y="290" width="40" height="40" fill="#fff0e6" stroke="#cc5200" stroke-width="2" rx="5"></rect>
  <text x="430" y="310" dy="0.35em" text-anchor="middle" font-family="monospace" font-weight="bold" fill="#333">6</text>
  <line x1="460" y1="230" x2="490" y2="290" stroke="#999" stroke-width="2"></line>
  <rect x="470" y="290" width="40" height="40" fill="#fff0e6" stroke="#cc5200" stroke-width="2" rx="5"></rect>
  <text x="490" y="310" dy="0.35em" text-anchor="middle" font-family="monospace" font-weight="bold" fill="#333">7</text>
  <rect x="430" y="210" width="60" height="40" fill="#e6f3ff" stroke="#0066cc" stroke-width="2" rx="5"></rect>
  <text x="460" y="230" dy="0.35em" text-anchor="middle" font-family="monospace" font-weight="bold" fill="#333">[6, 8)</text>
  <rect x="370" y="130" width="60" height="40" fill="#e6f3ff" stroke="#0066cc" stroke-width="2" rx="5"></rect>
  <text x="400" y="150" dy="0.35em" text-anchor="middle" font-family="monospace" font-weight="bold" fill="#333">[4, 8)</text>
  <rect x="250" y="50" width="60" height="40" fill="#e6f3ff" stroke="#0066cc" stroke-width="2" rx="5"></rect>
  <text x="280" y="70" dy="0.35em" text-anchor="middle" font-family="monospace" font-weight="bold" fill="#333">[0, 8)</text>
</svg>
