
<svg xmlns="http://www.w3.org/2000/svg" viewBox="0 0 1400 140">
  <style>
    .box { fill: none; stroke: #aaa; stroke-width: 2; }
    .shaded { fill: #ddd; }
    text { font-family: Arial, sans-serif; font-size: 60px; text-anchor: middle; dominant-baseline: central; }
    text.index { font-size: 30px; }
  </style>


  <rect class="box" x="0" y="0" width="100" height="100" />
  <text x="50" y="50">T</text>
  <text class="index" x="50" y="120">0</text>

  <rect class="box" x="100" y="0" width="100" height="100" />
  <text x="150" y="50">h</text>
  <text class="index" x="150" y="120">1</text>

  <rect class="box" x="200" y="0" width="100" height="100" />
  <text x="250" y="50">i</text>
  <text class="index" x="250" y="120">2</text>

  <rect class="box" x="300" y="0" width="100" height="100" />
  <text x="350" y="50">s</text>
  <text class="index" x="350" y="120">3</text>

  <rect class="box" x="400" y="0" width="100" height="100" />
  <text x="450" y="50"> </text>
  <text class="index" x="450" y="120">4</text>

  <rect class="box shaded" x="500" y="0" width="100" height="100" />
  <text x="550" y="50">i</text>
  <text class="index" x="550" y="120">5</text>

  <rect class="box shaded" x="600" y="0" width="100" height="100" />
  <text x="650" y="50">s</text>
  <text class="index" x="650" y="120">6</text>

  <rect class="box shaded" x="700" y="0" width="100" height="100" />
  <text x="750" y="50"> </text>
  <text class="index" x="750" y="120">7</text>

  <rect class="box shaded" x="800" y="0" width="100" height="100" />
  <text x="850" y="50">a</text>
  <text class="index" x="850" y="120">8</text>

  <rect class="box" x="900" y="0" width="100" height="100" />
  <text x="950" y="50"> </text>
  <text class="index" x="950" y="120">9</text>

  <rect class="box" x="1000" y="0" width="100" height="100" />
  <text x="1050" y="50">t</text>
  <text class="index" x="1050" y="120">10</text>

  <rect class="box" x="1100" y="0" width="100" height="100" />
  <text x="1150" y="50">e</text>
  <text class="index" x="1150" y="120">11</text>

  <rect class="box" x="1200" y="0" width="100" height="100" />
  <text x="1250" y="50">s</text>
  <text class="index" x="1250" y="120">12</text>

  <rect class="box" x="1300" y="0" width="100" height="100" />
  <text x="1350" y="50">t</text>
  <text class="index" x="1350" y="120">13</text>



</svg>

